<?xml version="1.0" encoding="iso-8859-1"?>
<!-- Generator: Adobe Illustrator 19.0.0, SVG Export Plug-In . SVG Version: 6.00 Build 0)  -->
<svg version="1.1" id="Capa_1" xmlns="http://www.w3.org/2000/svg" xmlns:xlink="http://www.w3.org/1999/xlink" x="0px" y="0px"
	 viewBox="0 0 512 512" style="enable-background:new 0 0 512 512;" xml:space="preserve">
<g>
	<g>
		<path d="M448,0H64C28.704,0,0,28.704,0,64v288c0,35.296,28.704,64,64,64h32v80c0,6.208,3.584,11.872,9.216,14.496
			c2.144,0.992,4.48,1.504,6.784,1.504c3.68,0,7.328-1.28,10.24-3.712L232.992,416H448c35.296,0,64-28.704,64-64V64
			C512,28.704,483.296,0,448,0z M272,256H144c-8.832,0-16-7.168-16-16c0-8.832,7.168-16,16-16h128c8.832,0,16,7.168,16,16
			C288,248.832,280.832,256,272,256z M368,160H144c-8.832,0-16-7.168-16-16c0-8.832,7.168-16,16-16h224c8.832,0,16,7.168,16,16
			C384,152.832,376.832,160,368,160z"/>
	</g>
</g>
<g>
</g>
<g>
</g>
<g>
</g>
<g>
</g>
<g>
</g>
<g>
</g>
<g>
</g>
<g>
</g>
<g>
</g>
<g>
</g>
<g>
</g>
<g>
</g>
<g>
</g>
<g>
</g>
<g>
</g>
</svg>
