<svg id="Layer_1" height="512" viewBox="0 0 24 24" width="512" xmlns="http://www.w3.org/2000/svg" data-name="Layer 1"><path d="m12 23.45a11.45 11.45 0 1 1 11.45-11.45 11.45 11.45 0 0 1 -11.45 11.45zm0-21a9.55 9.55 0 1 0 9.55 9.55 9.57 9.57 0 0 0 -9.55-9.55z"/><path d="m12 15.82a3.82 3.82 0 1 1 3.82-3.82 3.82 3.82 0 0 1 -3.82 3.82zm0-5.73a1.91 1.91 0 1 0 1.91 1.91 1.92 1.92 0 0 0 -1.91-1.91z"/><path d="m18.29 12h2.7v1.91h-2.7z" transform="matrix(.707 -.707 .707 .707 -3.41 17.68)"/><path d="m15.82 5.68h1.91v2.13h-1.91z" transform="matrix(.447 -.894 .894 .447 3.24 18.73)"/><path d="m5.32 8.18h1.91v1.91h-1.91z"/><path d="m4.36 12.56h1.91v2.7h-1.91z" transform="matrix(.707 -.707 .707 .707 -8.28 7.83)"/><path d="m9.14 18.68h2.86v1.91h-2.86z"/><path d="m14.86 16.77h1.91v1.91h-1.91z"/><path d="m9.98 3.89h2.13v1.91h-2.13z" transform="matrix(.895 -.447 .447 .895 -1 5.45)"/></svg>